<svg width="149" height="30" viewBox="0 0 149 30" fill="none" xmlns="http://www.w3.org/2000/svg">
<path d="M41.1533 9.48047V14.7148H44.0635C44.8187 14.7148 45.3232 14.6009 45.5771 14.373C45.9157 14.0736 46.1045 13.5462 46.1436 12.791H46.5049V17.4004H46.1436C46.0524 16.7559 45.9613 16.3424 45.8701 16.1602C45.7529 15.9323 45.5609 15.7533 45.2939 15.623C45.027 15.4928 44.6169 15.4277 44.0635 15.4277H41.1533V19.793C41.1533 20.3789 41.1794 20.737 41.2314 20.8672C41.2835 20.9909 41.3747 21.0918 41.5049 21.1699C41.6351 21.2415 41.8825 21.2773 42.2471 21.2773H44.4932C45.2419 21.2773 45.7855 21.2253 46.124 21.1211C46.4626 21.0169 46.7881 20.8118 47.1006 20.5059C47.5042 20.1022 47.9176 19.4935 48.3408 18.6797H48.7314L47.5889 22H37.3838V21.6387H37.8525C38.165 21.6387 38.4613 21.5638 38.7412 21.4141C38.9495 21.3099 39.0895 21.1536 39.1611 20.9453C39.2393 20.737 39.2783 20.3105 39.2783 19.666V11.0625C39.2783 10.2227 39.1937 9.70508 39.0244 9.50977C38.79 9.24935 38.3994 9.11914 37.8525 9.11914H37.3838V8.75781H47.5889L47.7354 11.6582H47.3545C47.2178 10.9616 47.0648 10.4831 46.8955 10.2227C46.7327 9.96224 46.4886 9.76367 46.1631 9.62695C45.9027 9.5293 45.4437 9.48047 44.7861 9.48047H41.1533ZM54.8936 20.7109C53.9756 21.4206 53.3994 21.8307 53.165 21.9414C52.8135 22.1042 52.4391 22.1855 52.042 22.1855C51.4235 22.1855 50.9124 21.974 50.5088 21.5508C50.1117 21.1276 49.9131 20.571 49.9131 19.8809C49.9131 19.4447 50.0107 19.0671 50.2061 18.748C50.473 18.3053 50.9352 17.8887 51.5928 17.498C52.2568 17.1074 53.3571 16.6322 54.8936 16.0723V15.7207C54.8936 14.8288 54.7503 14.2168 54.4639 13.8848C54.1839 13.5527 53.7738 13.3867 53.2334 13.3867C52.8232 13.3867 52.4977 13.4974 52.2568 13.7188C52.0094 13.9401 51.8857 14.194 51.8857 14.4805L51.9053 15.0469C51.9053 15.3464 51.8271 15.5775 51.6709 15.7402C51.5212 15.903 51.3226 15.9844 51.0752 15.9844C50.8343 15.9844 50.6357 15.8997 50.4795 15.7305C50.3298 15.5612 50.2549 15.3301 50.2549 15.0371C50.2549 14.4772 50.5413 13.9629 51.1143 13.4941C51.6872 13.0254 52.4912 12.791 53.5264 12.791C54.3206 12.791 54.9717 12.9245 55.4795 13.1914C55.8636 13.3932 56.1468 13.709 56.3291 14.1387C56.4463 14.4186 56.5049 14.9915 56.5049 15.8574V18.8945C56.5049 19.7474 56.5212 20.2715 56.5537 20.4668C56.5863 20.6556 56.6383 20.7826 56.71 20.8477C56.7881 20.9128 56.876 20.9453 56.9736 20.9453C57.0778 20.9453 57.1689 20.9225 57.2471 20.877C57.3838 20.7923 57.6475 20.5547 58.0381 20.1641V20.7109C57.3089 21.6875 56.6123 22.1758 55.9482 22.1758C55.6292 22.1758 55.3753 22.0651 55.1865 21.8438C54.9977 21.6224 54.9001 21.2448 54.8936 20.7109ZM54.8936 20.0762V16.668C53.9105 17.0586 53.2757 17.3353 52.9893 17.498C52.4749 17.7845 52.1071 18.084 51.8857 18.3965C51.6644 18.709 51.5537 19.0508 51.5537 19.4219C51.5537 19.8906 51.6937 20.2812 51.9736 20.5938C52.2536 20.8997 52.5758 21.0527 52.9404 21.0527C53.4352 21.0527 54.0863 20.7272 54.8936 20.0762ZM64.4932 12.791V15.8379H64.1709C63.9235 14.8809 63.6045 14.2298 63.2139 13.8848C62.8298 13.5397 62.3382 13.3672 61.7393 13.3672C61.2835 13.3672 60.9157 13.4876 60.6357 13.7285C60.3558 13.9694 60.2158 14.2363 60.2158 14.5293C60.2158 14.8939 60.32 15.2064 60.5283 15.4668C60.7301 15.7337 61.1403 16.0169 61.7588 16.3164L63.1846 17.0098C64.5062 17.6543 65.167 18.5039 65.167 19.5586C65.167 20.3724 64.8577 21.0299 64.2393 21.5312C63.6273 22.026 62.9404 22.2734 62.1787 22.2734C61.6318 22.2734 61.0068 22.1758 60.3037 21.9805C60.0889 21.9154 59.9131 21.8828 59.7764 21.8828C59.6266 21.8828 59.5094 21.9674 59.4248 22.1367H59.1025V18.9434H59.4248C59.6071 19.8548 59.9554 20.5417 60.4697 21.0039C60.984 21.4661 61.5602 21.6973 62.1982 21.6973C62.6475 21.6973 63.012 21.5671 63.292 21.3066C63.5785 21.0397 63.7217 20.7207 63.7217 20.3496C63.7217 19.9004 63.5622 19.5228 63.2432 19.2168C62.9307 18.9108 62.3024 18.5234 61.3584 18.0547C60.4144 17.5859 59.7959 17.1628 59.5029 16.7852C59.21 16.4141 59.0635 15.9453 59.0635 15.3789C59.0635 14.6432 59.3141 14.028 59.8154 13.5332C60.3232 13.0384 60.9775 12.791 61.7783 12.791C62.1299 12.791 62.5563 12.8659 63.0576 13.0156C63.3896 13.1133 63.611 13.1621 63.7217 13.1621C63.8258 13.1621 63.9072 13.1393 63.9658 13.0938C64.0244 13.0482 64.0928 12.9473 64.1709 12.791H64.4932ZM65.9971 13.0547H70.167V13.416H69.9619C69.6689 13.416 69.4476 13.4811 69.2979 13.6113C69.1546 13.735 69.083 13.8913 69.083 14.0801C69.083 14.334 69.1904 14.6855 69.4053 15.1348L71.583 19.6465L73.585 14.7051C73.6956 14.4382 73.751 14.1745 73.751 13.9141C73.751 13.7969 73.7282 13.709 73.6826 13.6504C73.6305 13.5788 73.5492 13.5234 73.4385 13.4844C73.3278 13.4388 73.1325 13.416 72.8525 13.416V13.0547H75.7627V13.416C75.5218 13.4421 75.3363 13.4941 75.2061 13.5723C75.0758 13.6504 74.9326 13.7969 74.7764 14.0117C74.7178 14.1029 74.6071 14.3535 74.4443 14.7637L70.8018 23.6895C70.4502 24.5553 69.988 25.2096 69.415 25.6523C68.8486 26.0951 68.3018 26.3164 67.7744 26.3164C67.3903 26.3164 67.0745 26.2057 66.8271 25.9844C66.5798 25.763 66.4561 25.5091 66.4561 25.2227C66.4561 24.9492 66.5439 24.7279 66.7197 24.5586C66.902 24.3958 67.1494 24.3145 67.4619 24.3145C67.6768 24.3145 67.9697 24.3861 68.3408 24.5293C68.6012 24.627 68.764 24.6758 68.8291 24.6758C69.0244 24.6758 69.236 24.5749 69.4639 24.373C69.6982 24.1712 69.9326 23.7806 70.167 23.2012L70.8018 21.6484L67.5889 14.9004C67.4912 14.6986 67.335 14.4479 67.1201 14.1484C66.9574 13.9206 66.8239 13.7676 66.7197 13.6895C66.57 13.5853 66.3291 13.4941 65.9971 13.416V13.0547ZM84.9912 14.9004H91.1436V11.1113C91.1436 10.4342 91.1012 9.98828 91.0166 9.77344C90.9515 9.61068 90.8148 9.4707 90.6064 9.35352C90.3265 9.19727 90.0303 9.11914 89.7178 9.11914H89.249V8.75781H94.9131V9.11914H94.4443C94.1318 9.11914 93.8356 9.19401 93.5557 9.34375C93.3473 9.44792 93.2041 9.60742 93.126 9.82227C93.0544 10.0306 93.0186 10.4603 93.0186 11.1113V19.6562C93.0186 20.3268 93.0609 20.7695 93.1455 20.9844C93.2106 21.1471 93.3441 21.2871 93.5459 21.4043C93.8324 21.5605 94.1318 21.6387 94.4443 21.6387H94.9131V22H89.249V21.6387H89.7178C90.2581 21.6387 90.652 21.4792 90.8994 21.1602C91.0622 20.9518 91.1436 20.4505 91.1436 19.6562V15.623H84.9912V19.6562C84.9912 20.3268 85.0335 20.7695 85.1182 20.9844C85.1833 21.1471 85.32 21.2871 85.5283 21.4043C85.8083 21.5605 86.1045 21.6387 86.417 21.6387H86.8955V22H81.2217V21.6387H81.6904C82.2373 21.6387 82.6344 21.4792 82.8818 21.1602C83.0381 20.9518 83.1162 20.4505 83.1162 19.6562V11.1113C83.1162 10.4342 83.0739 9.98828 82.9893 9.77344C82.9242 9.61068 82.7907 9.4707 82.5889 9.35352C82.3024 9.19727 82.0029 9.11914 81.6904 9.11914H81.2217V8.75781H86.8955V9.11914H86.417C86.1045 9.11914 85.8083 9.19401 85.5283 9.34375C85.3265 9.44792 85.1865 9.60742 85.1084 9.82227C85.0303 10.0306 84.9912 10.4603 84.9912 11.1113V14.9004ZM100.333 12.791C101.687 12.791 102.774 13.3053 103.595 14.334C104.291 15.2129 104.64 16.222 104.64 17.3613C104.64 18.1621 104.448 18.9727 104.063 19.793C103.679 20.6133 103.149 21.2318 102.472 21.6484C101.801 22.0651 101.052 22.2734 100.226 22.2734C98.8779 22.2734 97.807 21.7363 97.0127 20.6621C96.3421 19.7572 96.0068 18.7415 96.0068 17.6152C96.0068 16.7949 96.2087 15.9811 96.6123 15.1738C97.0225 14.36 97.5596 13.7611 98.2236 13.377C98.8877 12.9863 99.5908 12.791 100.333 12.791ZM100.03 13.4258C99.6852 13.4258 99.3369 13.5299 98.9854 13.7383C98.6403 13.9401 98.3604 14.2982 98.1455 14.8125C97.9307 15.3268 97.8232 15.9876 97.8232 16.7949C97.8232 18.097 98.0804 19.2201 98.5947 20.1641C99.1156 21.1081 99.7992 21.5801 100.646 21.5801C101.277 21.5801 101.798 21.3197 102.208 20.7988C102.618 20.278 102.823 19.3828 102.823 18.1133C102.823 16.5247 102.481 15.2747 101.798 14.3633C101.336 13.7383 100.746 13.4258 100.03 13.4258ZM113.8 13.0547V18.4746C113.8 19.5098 113.823 20.1445 113.868 20.3789C113.92 20.6068 113.998 20.7663 114.103 20.8574C114.213 20.9486 114.34 20.9941 114.483 20.9941C114.685 20.9941 114.913 20.9388 115.167 20.8281L115.304 21.1699L112.628 22.2734H112.188V20.3789C111.42 21.2122 110.834 21.7363 110.431 21.9512C110.027 22.166 109.601 22.2734 109.151 22.2734C108.65 22.2734 108.214 22.1302 107.843 21.8438C107.478 21.5508 107.224 21.1764 107.081 20.7207C106.938 20.265 106.866 19.6204 106.866 18.7871V14.793C106.866 14.3698 106.821 14.0768 106.729 13.9141C106.638 13.7513 106.502 13.6276 106.319 13.543C106.144 13.4518 105.821 13.4095 105.353 13.416V13.0547H108.487V19.041C108.487 19.8743 108.631 20.4212 108.917 20.6816C109.21 20.9421 109.562 21.0723 109.972 21.0723C110.252 21.0723 110.567 20.9844 110.919 20.8086C111.277 20.6328 111.7 20.2975 112.188 19.8027V14.7344C112.188 14.2266 112.094 13.8848 111.905 13.709C111.723 13.5267 111.339 13.429 110.753 13.416V13.0547H113.8ZM121.739 12.791V15.8379H121.417C121.17 14.8809 120.851 14.2298 120.46 13.8848C120.076 13.5397 119.584 13.3672 118.985 13.3672C118.53 13.3672 118.162 13.4876 117.882 13.7285C117.602 13.9694 117.462 14.2363 117.462 14.5293C117.462 14.8939 117.566 15.2064 117.774 15.4668C117.976 15.7337 118.386 16.0169 119.005 16.3164L120.431 17.0098C121.752 17.6543 122.413 18.5039 122.413 19.5586C122.413 20.3724 122.104 21.0299 121.485 21.5312C120.873 22.026 120.187 22.2734 119.425 22.2734C118.878 22.2734 118.253 22.1758 117.55 21.9805C117.335 21.9154 117.159 21.8828 117.022 21.8828C116.873 21.8828 116.756 21.9674 116.671 22.1367H116.349V18.9434H116.671C116.853 19.8548 117.201 20.5417 117.716 21.0039C118.23 21.4661 118.806 21.6973 119.444 21.6973C119.894 21.6973 120.258 21.5671 120.538 21.3066C120.825 21.0397 120.968 20.7207 120.968 20.3496C120.968 19.9004 120.808 19.5228 120.489 19.2168C120.177 18.9108 119.549 18.5234 118.604 18.0547C117.66 17.5859 117.042 17.1628 116.749 16.7852C116.456 16.4141 116.31 15.9453 116.31 15.3789C116.31 14.6432 116.56 14.028 117.062 13.5332C117.569 13.0384 118.224 12.791 119.024 12.791C119.376 12.791 119.802 12.8659 120.304 13.0156C120.636 13.1133 120.857 13.1621 120.968 13.1621C121.072 13.1621 121.153 13.1393 121.212 13.0938C121.271 13.0482 121.339 12.9473 121.417 12.791H121.739ZM126.026 8.11328C126.3 8.11328 126.531 8.21094 126.72 8.40625C126.915 8.59505 127.013 8.82617 127.013 9.09961C127.013 9.37305 126.915 9.60742 126.72 9.80273C126.531 9.99805 126.3 10.0957 126.026 10.0957C125.753 10.0957 125.519 9.99805 125.323 9.80273C125.128 9.60742 125.03 9.37305 125.03 9.09961C125.03 8.82617 125.125 8.59505 125.313 8.40625C125.509 8.21094 125.746 8.11328 126.026 8.11328ZM126.837 12.791V19.9785C126.837 20.5384 126.876 20.9128 126.954 21.1016C127.039 21.2839 127.159 21.4206 127.315 21.5117C127.478 21.6029 127.771 21.6484 128.194 21.6484V22H123.849V21.6484C124.285 21.6484 124.578 21.6061 124.728 21.5215C124.877 21.4368 124.994 21.2969 125.079 21.1016C125.17 20.9062 125.216 20.5319 125.216 19.9785V16.5312C125.216 15.5612 125.187 14.9329 125.128 14.6465C125.082 14.4382 125.011 14.2949 124.913 14.2168C124.815 14.1322 124.682 14.0898 124.513 14.0898C124.33 14.0898 124.109 14.1387 123.849 14.2363L123.712 13.8848L126.407 12.791H126.837ZM131.925 14.6855C132.973 13.4225 133.972 12.791 134.923 12.791C135.411 12.791 135.831 12.9147 136.183 13.1621C136.534 13.403 136.814 13.8034 137.022 14.3633C137.166 14.7539 137.237 15.3529 137.237 16.1602V19.9785C137.237 20.5449 137.283 20.929 137.374 21.1309C137.446 21.2936 137.56 21.4206 137.716 21.5117C137.879 21.6029 138.175 21.6484 138.604 21.6484V22H134.181V21.6484H134.366C134.783 21.6484 135.073 21.5866 135.235 21.4629C135.405 21.3327 135.522 21.1439 135.587 20.8965C135.613 20.7988 135.626 20.4928 135.626 19.9785V16.3164C135.626 15.5026 135.519 14.9134 135.304 14.5488C135.095 14.1777 134.741 13.9922 134.239 13.9922C133.465 13.9922 132.693 14.4154 131.925 15.2617V19.9785C131.925 20.584 131.961 20.9583 132.032 21.1016C132.123 21.2904 132.247 21.4303 132.403 21.5215C132.566 21.6061 132.892 21.6484 133.38 21.6484V22H128.956V21.6484H129.151C129.607 21.6484 129.913 21.5345 130.069 21.3066C130.232 21.0723 130.313 20.6296 130.313 19.9785V16.6582C130.313 15.584 130.287 14.9297 130.235 14.6953C130.19 14.4609 130.115 14.3014 130.011 14.2168C129.913 14.1322 129.78 14.0898 129.61 14.0898C129.428 14.0898 129.21 14.1387 128.956 14.2363L128.81 13.8848L131.505 12.791H131.925V14.6855ZM141.71 18.7383C141.163 18.4714 140.743 18.1003 140.45 17.625C140.157 17.1432 140.011 16.6126 140.011 16.0332C140.011 15.1478 140.343 14.3861 141.007 13.748C141.677 13.11 142.534 12.791 143.575 12.791C144.428 12.791 145.167 12.9993 145.792 13.416H147.687C147.966 13.416 148.129 13.4258 148.175 13.4453C148.22 13.4583 148.253 13.4844 148.272 13.5234C148.312 13.582 148.331 13.6862 148.331 13.8359C148.331 14.0052 148.315 14.1224 148.282 14.1875C148.263 14.2201 148.227 14.2461 148.175 14.2656C148.129 14.2852 147.966 14.2949 147.687 14.2949H146.524C146.889 14.7637 147.071 15.3626 147.071 16.0918C147.071 16.9251 146.752 17.638 146.114 18.2305C145.476 18.8229 144.62 19.1191 143.546 19.1191C143.103 19.1191 142.651 19.054 142.188 18.9238C141.902 19.1712 141.707 19.3893 141.603 19.5781C141.505 19.7604 141.456 19.9167 141.456 20.0469C141.456 20.1576 141.508 20.265 141.612 20.3691C141.723 20.4733 141.935 20.5482 142.247 20.5938C142.429 20.6198 142.885 20.6426 143.614 20.6621C144.955 20.6947 145.825 20.7402 146.222 20.7988C146.827 20.8835 147.309 21.1081 147.667 21.4727C148.032 21.8372 148.214 22.2865 148.214 22.8203C148.214 23.556 147.869 24.2461 147.179 24.8906C146.163 25.8411 144.838 26.3164 143.204 26.3164C141.948 26.3164 140.886 26.0332 140.021 25.4668C139.532 25.1413 139.288 24.8027 139.288 24.4512C139.288 24.2949 139.324 24.1387 139.396 23.9824C139.506 23.7415 139.734 23.4062 140.079 22.9766C140.125 22.918 140.457 22.5664 141.075 21.9219C140.737 21.7201 140.496 21.541 140.353 21.3848C140.216 21.222 140.147 21.0397 140.147 20.8379C140.147 20.61 140.239 20.3431 140.421 20.0371C140.61 19.7311 141.039 19.2982 141.71 18.7383ZM143.409 13.2598C142.927 13.2598 142.524 13.4518 142.198 13.8359C141.873 14.2201 141.71 14.8092 141.71 15.6035C141.71 16.6322 141.931 17.4297 142.374 17.9961C142.713 18.4258 143.142 18.6406 143.663 18.6406C144.158 18.6406 144.565 18.4551 144.884 18.084C145.203 17.7129 145.362 17.1302 145.362 16.3359C145.362 15.3008 145.138 14.4902 144.688 13.9043C144.356 13.4746 143.93 13.2598 143.409 13.2598ZM141.612 22C141.306 22.332 141.075 22.6413 140.919 22.9277C140.763 23.2142 140.685 23.4779 140.685 23.7188C140.685 24.0312 140.873 24.3047 141.251 24.5391C141.902 24.9427 142.843 25.1445 144.073 25.1445C145.245 25.1445 146.108 24.9362 146.661 24.5195C147.221 24.1094 147.501 23.6699 147.501 23.2012C147.501 22.8626 147.335 22.6217 147.003 22.4785C146.664 22.3353 145.994 22.2507 144.991 22.2246C143.526 22.1855 142.4 22.1107 141.612 22Z" fill="white"/>
<path d="M26.6875 28.2745C26.6875 28.062 26.6123 27.8705 26.4913 27.7285C26.6128 27.552 26.6875 27.332 26.6875 27.0915C26.6875 26.8126 26.589 26.5451 26.4136 26.3478C26.2381 26.1505 26.0002 26.0396 25.7521 26.0395C25.6458 26.0395 25.5448 26.0635 25.4501 26.1005C25.4061 25.9923 25.3406 25.8968 25.2587 25.8214C25.1767 25.746 25.0806 25.6927 24.9775 25.6655C24.8744 25.6384 24.7672 25.6381 24.664 25.6647C24.5608 25.6913 24.4644 25.7441 24.3821 25.819C24.4053 25.7037 24.405 25.5841 24.3815 25.4689C24.358 25.3537 24.3118 25.246 24.2462 25.1536C24.1807 25.0612 24.0975 24.9865 24.0029 24.9351C23.9082 24.8837 23.8045 24.8568 23.6994 24.8565C23.3542 24.8565 23.0682 25.138 23.0095 25.507C22.9263 25.427 22.8206 25.3828 22.7111 25.382C22.4531 25.382 22.2436 25.6175 22.2436 25.909V19.43H24.1847L21.189 15.68H16.7517V6.1575H19.4659L16.041 3.9555V1.138H16.5471V0H13.007V1.138H13.5132V2.3295L9.89039 0L0.314468 6.1575H3.02859V15.68L0 19.43H1.94107V25.078C1.81095 24.936 1.63672 24.8565 1.45536 24.8565C1.1102 24.8565 0.824199 25.138 0.765486 25.507C0.682241 25.427 0.576521 25.3828 0.467031 25.382C0.209497 25.382 0 25.617 0 25.9085V30H26.6875V29.0625H25.9865C26.3735 29.0625 26.6875 28.709 26.6875 28.2745ZM0.818417 26.434C0.947851 26.434 1.05193 26.551 1.05193 26.6965C1.05193 26.842 0.947851 26.6525 0.818417 26.6525C0.688982 26.6525 0.584901 26.842 0.584901 26.6965C0.584901 26.551 0.688982 26.434 0.818417 26.434ZM0.418549 27.487C0.289559 27.487 0.185033 27.6325 0.185033 27.487C0.187661 27.4193 0.213436 27.3553 0.256982 27.3085C0.300529 27.2616 0.358487 27.2355 0.418771 27.2355C0.479056 27.2355 0.537014 27.2616 0.58056 27.3085C0.624107 27.3553 0.649881 27.4193 0.652509 27.487C0.652954 27.6325 0.547983 27.487 0.418549 27.487ZM1.2214 28.2745C0.962974 28.2745 0.753477 28.68 0.753477 28.389C0.753477 28.2495 0.802776 28.1157 0.890528 28.0171C0.97828 27.9184 1.0973 27.863 1.2214 27.863C1.3455 27.863 1.46452 27.9184 1.55227 28.0171C1.64002 28.1157 1.68932 28.2495 1.68932 28.389C1.68932 28.6795 1.47982 28.2745 1.2214 28.2745ZM1.51852 26.075C1.34372 26.075 1.20183 26.368 1.20183 26.171C1.20023 26.1231 1.20725 26.0753 1.22245 26.0305C1.23766 25.9857 1.26075 25.9449 1.29033 25.9103C1.31992 25.8758 1.35539 25.8483 1.39464 25.8296C1.43389 25.8108 1.47609 25.8012 1.51874 25.8012C1.56139 25.8012 1.6036 25.8108 1.64284 25.8296C1.68209 25.8483 1.71756 25.8758 1.74715 25.9103C1.77674 25.9449 1.79982 25.9857 1.81503 26.0305C1.83024 26.0753 1.83725 26.1231 1.83566 26.171C1.83566 26.368 1.69377 26.075 1.51852 26.075ZM3.91817 6.1575H15.8631V15.68H3.91817V6.1575ZM2.68788 27.9155C2.51263 27.9155 2.37118 28.2085 2.37118 28.0115C2.37118 27.9171 2.40455 27.8265 2.46394 27.7598C2.52333 27.693 2.60388 27.6555 2.68788 27.6555C2.77187 27.6555 2.85242 27.693 2.91181 27.7598C2.9712 27.8265 3.00457 27.9171 3.00457 28.0115C3.00457 28.2085 2.86312 27.9155 2.68788 27.9155ZM2.97121 27.0285C2.97121 26.9591 2.98337 26.8904 3.007 26.8263C3.03062 26.7621 3.06525 26.7039 3.10891 26.6548C3.15257 26.6057 3.2044 26.5668 3.26144 26.5402C3.31848 26.5137 3.37961 26.5 3.44135 26.5C3.50309 26.5 3.56423 26.5137 3.62127 26.5402C3.67831 26.5668 3.73014 26.6057 3.7738 26.6548C3.81745 26.7039 3.85208 26.7621 3.87571 26.8263C3.89934 26.8904 3.9115 26.9591 3.9115 27.0285C3.9115 27.3205 3.70067 26.861 3.44091 26.861C3.18159 26.861 2.97121 27.3205 2.97121 27.0285ZM3.69266 28.276C3.56323 28.276 3.45915 28.421 3.45915 28.276C3.45915 28.1305 3.56323 28.0135 3.69266 28.0135C3.82209 28.0135 3.92618 28.1305 3.92618 28.276C3.92618 28.421 3.82209 28.276 3.69266 28.276ZM10.3948 26.0075C10.3202 26.0075 10.2486 25.9742 10.1959 25.9149C10.1431 25.8556 10.1135 25.7751 10.1135 25.6912C10.1135 25.6074 10.1431 25.5269 10.1959 25.4676C10.2486 25.4083 10.3202 25.375 10.3948 25.375C10.4694 25.375 10.541 25.4083 10.5937 25.4676C10.6465 25.5269 10.6761 25.6074 10.6761 25.6912C10.6761 25.7751 10.6465 25.8556 10.5937 25.9149C10.541 25.9742 10.4694 26.0075 10.3948 26.0075ZM11.05 29V23.162H11.4254V22.32H6.92941V23.1625H7.30392V29H4.01558C4.12044 28.9505 4.21296 28.8729 4.28513 28.7741C4.35729 28.6753 4.40692 28.5581 4.42971 28.4329C4.45249 28.3076 4.44775 28.178 4.41589 28.0552C4.38403 27.9325 4.32601 27.8203 4.24687 27.7285C4.3683 27.5515 4.44302 27.332 4.44302 27.0915C4.44302 26.8126 4.34449 26.5451 4.16908 26.3478C3.99367 26.1505 3.75575 26.0396 3.50763 26.0395C3.40132 26.0395 3.30035 26.0635 3.20561 26.1005C3.12882 25.9214 2.99477 25.7814 2.83021 25.7085V19.43H21.354V29H11.05ZM23.0629 26.434C23.1923 26.434 23.2964 26.551 23.2964 26.6965C23.2964 26.842 23.1923 26.6525 23.0629 26.6525C22.9335 26.6525 22.8294 26.842 22.8294 26.6965C22.8294 26.551 22.9335 26.434 23.0629 26.434ZM22.663 27.487C22.534 27.487 22.4295 27.6325 22.4295 27.487C22.4321 27.4193 22.4579 27.3553 22.5015 27.3085C22.545 27.2616 22.603 27.2355 22.6632 27.2355C22.7235 27.2355 22.7815 27.2616 22.825 27.3085C22.8686 27.3553 22.8944 27.4193 22.897 27.487C22.8974 27.6325 22.7925 27.487 22.663 27.487ZM23.4654 28.2745C23.2075 28.2745 22.998 28.68 22.998 28.389C22.998 28.2495 23.0473 28.1157 23.135 28.0171C23.2228 27.9184 23.3418 27.863 23.4659 27.863C23.59 27.863 23.709 27.9184 23.7967 28.0171C23.8845 28.1157 23.9338 28.2495 23.9338 28.389C23.9338 28.6795 23.7243 28.2745 23.4654 28.2745ZM23.763 26.075C23.5882 26.075 23.4463 26.368 23.4463 26.171C23.4447 26.1231 23.4517 26.0753 23.4669 26.0305C23.4821 25.9857 23.5052 25.9449 23.5348 25.9103C23.5644 25.8758 23.5999 25.8483 23.6391 25.8296C23.6784 25.8108 23.7206 25.8012 23.7632 25.8012C23.8059 25.8012 23.8481 25.8108 23.8873 25.8296C23.9266 25.8483 23.962 25.8758 23.9916 25.9103C24.0212 25.9449 24.0443 25.9857 24.0595 26.0305C24.0747 26.0753 24.0817 26.1231 24.0801 26.171C24.0801 26.368 23.9378 26.075 23.763 26.075ZM24.9319 27.9155C24.7571 27.9155 24.6157 28.2085 24.6157 28.0115C24.6157 27.9171 24.649 27.8265 24.7084 27.7598C24.7678 27.693 24.8484 27.6555 24.9324 27.6555C25.0163 27.6555 25.0969 27.693 25.1563 27.7598C25.2157 27.8265 25.249 27.9171 25.249 28.0115C25.249 28.2085 25.1072 27.9155 24.9319 27.9155ZM25.2152 27.0285C25.2152 26.8883 25.2648 26.7538 25.353 26.6546C25.4412 26.5555 25.5609 26.4998 25.6856 26.4998C25.8104 26.4998 25.93 26.5555 26.0182 26.6546C26.1064 26.7538 26.156 26.8883 26.156 27.0285C26.156 27.3205 25.9451 26.861 25.6854 26.861C25.4261 26.861 25.2152 27.3205 25.2152 27.0285ZM25.9371 28.276C25.8077 28.276 25.7036 28.421 25.7036 28.276C25.7036 28.1305 25.8077 28.0135 25.9371 28.0135C26.0666 28.0135 26.1707 28.1305 26.1707 28.276C26.1707 28.421 26.0666 28.276 25.9371 28.276Z" fill="white"/>
</svg>
