<svg width="19" height="24" viewBox="0 0 19 24" fill="none" xmlns="http://www.w3.org/2000/svg">
<path d="M9.42645 8.67759L7.67069 10.3106C7.90076 11.132 8.22512 11.9237 8.63721 12.6696C9.06417 13.4068 9.57963 14.0882 10.172 14.6986L12.4474 13.9726C13.0711 13.7746 13.7395 13.7697 14.3659 13.9584C14.9924 14.1472 15.5482 14.5208 15.9614 15.0311L17.2582 16.625C17.7845 17.272 18.0471 18.0961 17.993 18.9306C17.9389 19.7652 17.5721 20.5479 16.9668 21.1206C14.854 23.1154 11.5975 23.7925 9.15932 21.81C7.00803 20.052 5.19623 17.9108 3.81433 15.4931C2.41626 13.0691 1.48294 10.4022 1.0629 7.6313C0.594214 4.50221 2.80895 1.99894 5.56523 1.14333C6.35984 0.898603 7.21734 0.969153 7.96193 1.34051C8.70651 1.71188 9.28176 2.35591 9.56973 3.14057L10.2813 5.06691C10.5109 5.686 10.5525 6.35984 10.4007 7.00277C10.2489 7.6457 9.91063 8.22868 9.42888 8.67759H9.42645Z" stroke="#FF3030"/>
</svg>
