<svg width="112" height="112" viewBox="0 0 112 112" fill="none" xmlns="http://www.w3.org/2000/svg">
<path d="M56.0354 24.0015C57.0849 24.0015 58.1183 24.0696 59.0797 24.2298C60.0265 24.3538 60.9607 24.5603 61.8716 24.8467C62.7849 25.123 63.6782 25.4675 64.5715 25.9001C65.4407 26.3127 66.3339 26.8174 67.2272 27.3662C68.7373 28.3276 70.2235 29.1047 71.7376 29.7256C74.7184 30.9186 77.8704 31.6285 81.0748 31.8285C82.7011 31.9447 84.3715 32.0128 86.1099 32.0128V48.0355C86.1099 51.0798 85.7214 53.9638 84.9443 56.7117C84.1978 59.4204 83.1371 62.0325 81.7838 64.4947C80.4362 66.9535 78.8417 69.2687 77.0251 71.4045C75.1805 73.5888 73.1834 75.6395 71.0486 77.5412C68.8856 79.4485 66.6074 81.221 64.227 82.8487C61.8476 84.499 59.4442 86.0332 57.0408 87.4272L56.0794 88L55.1181 87.4272C52.6474 85.9968 50.2341 84.4694 47.8838 82.8487C45.49 81.2393 43.2107 79.4659 41.0622 77.5412C38.9287 75.6395 36.9329 73.5888 35.0897 71.4045C33.278 69.2597 31.6763 66.9458 30.307 64.4947C28.9768 62.0215 27.9172 59.4121 27.1465 56.7117C26.3645 53.8867 25.9789 50.9667 26.0009 48.0355V32.0128C27.7434 32.0128 29.4137 31.9447 31.04 31.8285C32.6409 31.7173 34.2315 31.4884 35.7987 31.1436C37.3329 30.7991 38.8671 30.3424 40.3772 29.7256C41.9443 29.0931 43.4467 28.3111 44.8636 27.3903C46.6261 26.2446 48.4126 25.3994 50.1751 24.8426C52.0732 24.2608 54.0502 23.977 56.0354 24.0015ZM82.0802 35.9504C79.048 35.8032 76.0441 35.2963 73.1316 34.4402C70.2344 33.576 67.4749 32.3042 64.936 30.6629C63.619 29.7984 62.1888 29.1204 60.686 28.648C59.1848 28.1943 57.6236 27.9702 56.0554 27.9831C54.4756 27.9729 52.9029 28.197 51.3888 28.648C49.8838 29.105 48.4554 29.7841 47.1508 30.6629C44.6074 32.3131 41.8408 33.5906 38.9352 34.4562C36.0952 35.2814 33.123 35.7861 30.0066 35.9704V48.0555C30.0066 50.7112 30.351 53.2508 31.04 55.6983C31.7419 58.1245 32.7091 60.4659 33.9241 62.6802C35.1536 64.9175 36.6028 67.0269 38.2502 68.9771C39.9206 70.9439 41.7031 72.7745 43.6258 74.5129C45.5485 76.2554 47.5634 77.8576 49.6704 79.3438C51.7974 80.8339 53.9284 82.1838 56.0554 83.4175C58.2333 82.1496 60.3569 80.7905 62.4204 79.3438C64.5413 77.8623 66.5668 76.2489 68.485 74.5129C70.4077 72.7745 72.1942 70.9439 73.8646 68.9771C75.5122 67.027 76.9614 64.9176 78.1907 62.6802C79.4003 60.4687 80.3532 58.1262 81.0307 55.6983C81.7406 53.2132 82.094 50.6399 82.0802 48.0555V35.9504Z" fill="#FF3030"/>
<path fill-rule="evenodd" clip-rule="evenodd" d="M70.9699 42.865L69.2074 41.3509L67.5811 41.4911L50.1164 62.1122L44.1679 53.6202L42.5657 53.3478L40.7111 54.6737L40.4347 56.276L48.0815 67.1954L48.9507 67.6761L50.7813 67.7883L51.7186 67.3797L71.086 44.4873L70.9699 42.865Z" fill="#FF3030"/>
<circle cx="56" cy="56" r="56" fill="#FF5A3C" fill-opacity="0.2"/>
</svg>
