<svg width="112" height="112" viewBox="0 0 112 112" fill="none" xmlns="http://www.w3.org/2000/svg">
<path d="M55.8039 50.7964C63.525 43.0335 82.8325 56.6151 55.8039 74.0804C28.7753 56.6151 48.0827 43.0335 55.8039 50.7964Z" fill="#FF3030"/>
<path d="M59.0826 25.3586C58.2125 24.4887 57.0325 24 55.8021 24C54.5717 24 53.3917 24.4887 52.5215 25.3586L21.6787 56.1967C21.2437 56.6324 20.9996 57.223 21 57.8386C21.0004 58.4543 21.2454 59.0446 21.6811 59.4796C22.1167 59.9146 22.7073 60.1588 23.323 60.1583C23.9386 60.1579 24.5289 59.9129 24.9639 59.4773L27.9615 56.4798V81.0398C27.9615 82.8858 28.6948 84.6561 30 85.9614C31.3053 87.2667 33.0757 88 34.9216 88H76.6826C78.5285 88 80.2989 87.2667 81.6041 85.9614C82.9094 84.6561 83.6427 82.8858 83.6427 81.0398V56.4798L86.6402 59.4773C87.0753 59.9129 87.6655 60.1579 88.2812 60.1583C88.8969 60.1588 89.4875 59.9146 89.9231 59.4796C90.3588 59.0446 90.6037 58.4543 90.6042 57.8386C90.6046 57.223 90.3605 56.6324 89.9254 56.1967L79.0026 45.2785V29.9987C79.0026 29.3834 78.7582 28.7932 78.3231 28.3581C77.888 27.923 77.2979 27.6786 76.6826 27.6786H72.0425C71.4271 27.6786 70.837 27.923 70.4019 28.3581C69.9668 28.7932 69.7224 29.3834 69.7224 29.9987V35.9983L59.0826 25.3586ZM79.0026 51.8396V81.0398C79.0026 81.6552 78.7582 82.2453 78.3231 82.6804C77.888 83.1155 77.2979 83.3599 76.6826 83.3599H34.9216C34.3063 83.3599 33.7162 83.1155 33.2811 82.6804C32.846 82.2453 32.6016 81.6552 32.6016 81.0398V51.8396L55.8021 28.6391L79.0026 51.8396Z" fill="#FF3030"/>
<circle cx="56" cy="56" r="56" fill="#FF5A3C" fill-opacity="0.2"/>
</svg>
