<svg width="112" height="112" viewBox="0 0 112 112" fill="none" xmlns="http://www.w3.org/2000/svg">
<path d="M76.8336 33H27V71.3335H76.8336V33ZM73.0002 67.5002H30.8334V36.8334H73.0002V67.5002Z" fill="#FF3030"/>
<path d="M80.6675 42.5835V75.167H36.584V79.0003H84.5009V42.5835H80.6675Z" fill="#FF3030"/>
<path d="M51.9163 61.5656C56.6721 61.5656 60.5414 57.3565 60.5414 52.1828C60.5414 47.009 56.6721 42.7999 51.9163 42.7999C47.1606 42.7999 43.2913 47.0089 43.2913 52.1828C43.2913 57.3566 47.1606 61.5656 51.9163 61.5656ZM51.9163 46.6333C54.5585 46.6333 56.708 49.1228 56.708 52.1828C56.708 55.2427 54.5585 57.7323 51.9163 57.7323C49.2742 57.7323 47.1246 55.2427 47.1246 52.1828C47.1246 49.1228 49.2742 46.6333 51.9163 46.6333ZM34.6662 41.625H38.4996V62.7084H34.6662V41.625ZM65.3331 41.625H69.1664V62.7084H65.3331V41.625Z" fill="#FF3030"/>
<circle cx="56" cy="56" r="56" fill="#FF5A3C" fill-opacity="0.2"/>
</svg>
